<svg width="32" height="32" viewBox="0 0 32 32" fill="none" xmlns="http://www.w3.org/2000/svg">
<path d="M26.5696 31.7136H5.61203C2.84483 31.7136 0.593628 29.4096 0.593628 26.5772V5.13641C0.593628 2.304 2.84483 0 5.61203 0H26.5696C29.336 0 31.5872 2.304 31.5872 5.13641V26.5781C31.5872 29.4105 29.336 31.7136 26.5696 31.7136ZM10.9936 6.5641H21.3936C22.4545 6.5641 23.4719 6.99634 24.2221 7.76572C24.9722 8.5351 25.3936 9.5786 25.3936 10.6667V21.3333C25.3936 22.4214 24.9722 23.4649 24.2221 24.2343C23.4719 25.0037 22.4545 25.4359 21.3936 25.4359H10.9936C9.93276 25.4359 8.91535 25.0037 8.1652 24.2343C7.41505 23.4649 6.99363 22.4214 6.99363 21.3333V10.6667C6.99363 9.5786 7.41505 8.5351 8.1652 7.76572C8.91535 6.99634 9.93276 6.5641 10.9936 6.5641ZM10.9936 4.10256C9.29624 4.10256 7.66838 4.79414 6.46814 6.02515C5.26791 7.25615 4.59363 8.92576 4.59363 10.6667V21.3333C4.59363 23.0742 5.26791 24.7438 6.46814 25.9749C7.66838 27.2059 9.29624 27.8974 10.9936 27.8974H21.3936C22.2341 27.8974 23.0663 27.7277 23.8428 27.3978C24.6193 27.0679 25.3248 26.5844 25.9191 25.9749C26.5134 25.3653 26.9848 24.6417 27.3065 23.8453C27.6281 23.0489 27.7936 22.1953 27.7936 21.3333V10.6667C27.7936 8.92576 27.1193 7.25615 25.9191 6.02515C24.7189 4.79414 23.091 4.10256 21.3936 4.10256H10.9936ZM16.1936 21.7436C17.6788 21.7436 19.1032 21.1385 20.1534 20.0613C21.2036 18.9842 21.7936 17.5233 21.7936 16C21.7936 14.4767 21.2036 13.0158 20.1534 11.9387C19.1032 10.8615 17.6788 10.2564 16.1936 10.2564C14.7084 10.2564 13.284 10.8615 12.2338 11.9387C11.1836 13.0158 10.5936 14.4767 10.5936 16C10.5936 17.5233 11.1836 18.9842 12.2338 20.0613C13.284 21.1385 14.7084 21.7436 16.1936 21.7436ZM16.1936 19.2821C15.3449 19.2821 14.531 18.9363 13.9309 18.3208C13.3308 17.7053 12.9936 16.8705 12.9936 16C12.9936 15.1295 13.3308 14.2947 13.9309 13.6792C14.531 13.0637 15.3449 12.7179 16.1936 12.7179C17.0423 12.7179 17.8563 13.0637 18.4564 13.6792C19.0565 14.2947 19.3936 15.1295 19.3936 16C19.3936 16.8705 19.0565 17.7053 18.4564 18.3208C17.8563 18.9363 17.0423 19.2821 16.1936 19.2821ZM22.1936 11.4872C22.618 11.4872 23.0249 11.3143 23.325 11.0065C23.6251 10.6988 23.7936 10.2814 23.7936 9.84615C23.7936 9.41093 23.6251 8.99353 23.325 8.68577C23.0249 8.37802 22.618 8.20513 22.1936 8.20513C21.7693 8.20513 21.3623 8.37802 21.0623 8.68577C20.7622 8.99353 20.5936 9.41093 20.5936 9.84615C20.5936 10.2814 20.7622 10.6988 21.0623 11.0065C21.3623 11.3143 21.7693 11.4872 22.1936 11.4872Z" fill="white"/>
</svg>
