<svg width="50" height="50" viewBox="0 0 50 50" fill="none" xmlns="http://www.w3.org/2000/svg">
<rect width="50" height="50" fill="black"/>
<path d="M35.6323 30.5914C35.6323 30.7526 35.5665 30.9072 35.4493 31.0213C35.3321 31.1353 35.1731 31.1993 35.0073 31.1993C34.8416 31.1993 34.6826 31.1353 34.5654 31.0213C34.4482 30.9072 34.3823 30.7526 34.3823 30.5914C34.3823 30.4301 34.4482 30.2755 34.5654 30.1615C34.6826 30.0475 34.8416 29.9834 35.0073 29.9834C35.1731 29.9834 35.3321 30.0475 35.4493 30.1615C35.5665 30.2755 35.6323 30.4301 35.6323 30.5914Z" fill="white"/>
<path d="M38.7573 30.5913C38.758 31.2371 38.5824 31.8714 38.2485 32.4296C37.9146 32.9878 37.4344 33.4497 36.8569 33.7682C36.2794 34.0867 35.6253 34.2504 34.9614 34.2424C34.2976 34.2345 33.6478 34.0554 33.0785 33.7232C32.5092 33.391 32.0407 32.9178 31.721 32.3519C31.4012 31.7859 31.2416 31.1476 31.2586 30.502C31.2755 29.8564 31.4683 29.2268 31.8172 28.6774C32.1662 28.1281 32.6589 27.6787 33.2448 27.3751L33.8698 29.1626C33.5221 29.4282 33.282 29.8048 33.192 30.2259C33.102 30.647 33.1679 31.0855 33.378 31.464C33.5882 31.8424 33.929 32.1364 34.3404 32.2941C34.7518 32.4517 35.2072 32.4629 35.6263 32.3256C36.0453 32.1883 36.401 31.9114 36.6304 31.5437C36.8599 31.1761 36.9484 30.7413 36.8804 30.3164C36.8123 29.8914 36.592 29.5035 36.2584 29.2211C35.9249 28.9388 35.4995 28.7803 35.0573 28.7735L34.4323 26.9921C34.9665 26.9115 35.5124 26.9442 36.0324 27.0879C36.5524 27.2316 37.0343 27.4831 37.4451 27.8249C37.8559 28.1668 38.1858 28.591 38.4123 29.0684C38.6388 29.5459 38.7565 30.0654 38.7573 30.5913ZM38.5761 22.7485C38.3511 23.4112 38.3823 23.2957 38.1323 23.2957C37.8859 23.2947 37.6452 23.2228 37.4406 23.0891C37.236 22.9555 37.0766 22.7659 36.9824 22.5444C36.8883 22.3228 36.8635 22.0791 36.9113 21.8439C36.9591 21.6087 37.0773 21.3925 37.2511 21.2225C37.6573 20.8273 38.0198 20.8638 38.6698 20.8638C38.8121 21.4889 38.7797 22.1397 38.5761 22.7485ZM30.7073 20.5598C30.6297 21.0129 30.4432 21.4418 30.163 21.8116C29.8828 22.1813 29.5168 22.4815 29.0948 22.6877L25.2886 24.5116L23.7573 21.9399C23.7936 21.4808 24.0071 21.0521 24.3549 20.7397C24.7026 20.4273 25.159 20.2545 25.6323 20.2559C29.7511 20.2559 30.0073 20.1525 30.7073 20.5598Z" fill="white"/>
<path d="M38.1761 19.6478C37.1948 18.0792 33.8011 16 29.8698 16L31.0761 17.4713C31.4719 17.9527 31.7521 18.5141 31.8961 19.1144C32.04 19.7148 32.0442 20.3388 31.9081 20.9409C31.7721 21.543 31.4994 22.1079 31.11 22.5942C30.7205 23.0805 30.2242 23.476 29.6573 23.7516C29.4886 23.8306 23.1323 26.9434 22.9448 26.9434H20.6323V32.4151H30.0073V30.5912C30.0071 29.3169 30.521 28.0934 31.4385 27.1839C32.356 26.2743 33.6038 25.7514 34.9136 25.7275C36.3698 25.1195 36.8823 24.9736 37.5073 24.4203C36.927 24.2612 36.4253 23.9035 36.0948 23.413C35.7642 22.9225 35.627 22.3323 35.7084 21.7512C35.7898 21.1701 36.0844 20.6371 36.5379 20.2506C36.9914 19.8641 37.5732 19.65 38.1761 19.6478ZM23.7573 31.1992H22.5073C22.3416 31.1992 22.1826 31.1351 22.0654 31.0211C21.9482 30.9071 21.8823 30.7524 21.8823 30.5912C21.8823 30.4299 21.9482 30.2753 22.0654 30.1613C22.1826 30.0473 22.3416 29.9832 22.5073 29.9832H23.7573C23.9231 29.9832 24.0821 30.0473 24.1993 30.1613C24.3165 30.2753 24.3823 30.4299 24.3823 30.5912C24.3823 30.7524 24.3165 30.9071 24.1993 31.0211C24.0821 31.1351 23.9231 31.1992 23.7573 31.1992ZM19.3823 28.4268V31.1992H15.0073C14.8416 31.1992 14.6826 31.1351 14.5654 31.0211C14.4482 30.9071 14.3823 30.7524 14.3823 30.5912C14.3823 30.4299 14.4482 30.2753 14.5654 30.1613C14.6826 30.0473 14.8416 29.9832 15.0073 29.9832C15.1948 29.9832 14.9136 30.0623 19.3823 28.4268ZM23.1323 23.2956C20.7323 23.2956 20.0573 23.4962 19.5636 22.6876H22.7761L23.1323 23.2956Z" fill="white"/>
<path d="M24.1636 25.0648L22.7948 25.7275H20.1323L11.2573 22.0797V20.8638H16.1511C18.4386 22.7971 18.0948 22.5174 18.1823 22.5722C18.2988 23.1203 18.6062 23.6126 19.0526 23.9659C19.4989 24.3192 20.0569 24.512 20.6323 24.5116H23.8448L24.1636 25.0648ZM18.2448 32.4151C17.8578 33.0649 17.2742 33.5826 16.5734 33.8977C15.8727 34.2128 15.0891 34.3098 14.3296 34.1756C13.57 34.0413 12.8716 33.6823 12.3296 33.1476C11.7877 32.6129 11.4285 31.9284 11.3013 31.1878C11.1741 30.4471 11.2849 29.6863 11.6187 29.0092C11.9525 28.3321 12.493 27.7718 13.1664 27.4046C13.8397 27.0374 14.6132 26.8813 15.3812 26.9576C16.1492 27.034 16.8742 27.339 17.4573 27.8311L14.8511 28.7673C14.3813 28.8055 13.9436 29.0144 13.6251 29.3524C13.3066 29.6904 13.1307 30.1327 13.1323 30.5912C13.1323 31.075 13.3299 31.5389 13.6815 31.8809C14.0331 32.223 14.51 32.4151 15.0073 32.4151H18.2448Z" fill="white"/>
</svg>
