<svg width="32" height="32" viewBox="0 0 32 32" fill="none" xmlns="http://www.w3.org/2000/svg">
<path fill-rule="evenodd" clip-rule="evenodd" d="M27.8985 0H4.10127C1.84787 0 0 1.8478 0 4.1014V27.8985C0 30.1524 1.84787 32 4.10127 32H27.8985C30.1521 32 32 30.1524 32 27.8986V4.1014C32 1.8478 30.1521 0 27.8985 0ZM26.6667 15.4621V16.8392C26.6667 18.6428 26.4581 20.4449 26.4581 20.4449C26.4581 20.4449 26.2533 21.9791 25.6129 22.6543C24.8011 23.5427 23.8918 23.5461 23.4763 23.5989C20.4856 23.8223 15.9992 23.831 15.9992 23.831C15.9992 23.831 10.4467 23.7768 8.7374 23.6065C8.26387 23.5142 7.19613 23.5427 6.38147 22.6552C5.7428 21.9805 5.54093 20.4449 5.54093 20.4449C5.54093 20.4449 5.33333 18.6428 5.33333 16.8392V15.1504C5.33333 13.3485 5.54107 11.5466 5.54107 11.5466C5.54107 11.5466 5.74627 10.0113 6.38493 9.33533C7.19967 8.44847 8.1068 8.4592 8.5242 8.40913C11.5118 8.184 15.9949 8.2 15.9949 8.2H16.0048C16.0048 8.2 20.4871 8.184 23.4779 8.40773C23.8933 8.4592 24.8041 8.45653 25.6158 9.3434C26.2561 10.0178 26.4581 11.5499 26.4581 11.5499C26.4581 11.5499 26.6667 13.3485 26.6667 15.1504V15.4621Z" fill="white"/>
</svg>
